<svg width="153" height="28" viewBox="0 0 153 28" fill="none" xmlns="http://www.w3.org/2000/svg">
<path d="M39.398 23.26C38.4967 23.26 37.7167 23.1387 37.058 22.896C36.3993 22.6533 35.7927 22.2807 35.238 21.778L35.082 23H32.638V5.476H35.472V11.482C36.5467 10.7713 37.838 10.416 39.346 10.416C41.0967 10.416 42.4747 10.9187 43.48 11.924C44.5027 12.912 45.014 14.5153 45.014 16.734C45.014 18.97 44.5113 20.6167 43.506 21.674C42.5007 22.7313 41.1313 23.26 39.398 23.26ZM38.644 21.128C39.9267 21.128 40.828 20.764 41.348 20.036C41.8853 19.308 42.154 18.2073 42.154 16.734C42.154 15.2087 41.868 14.134 41.296 13.51C40.724 12.886 39.8227 12.574 38.592 12.574C37.3093 12.574 36.2693 12.9293 35.472 13.64V19.828C36.2867 20.6947 37.344 21.128 38.644 21.128ZM53.6728 23.26C51.4541 23.26 49.8248 22.7053 48.7848 21.596C47.7621 20.4867 47.2508 18.9007 47.2508 16.838C47.2508 14.7753 47.7708 13.1893 48.8108 12.08C49.8508 10.9707 51.4715 10.416 53.6728 10.416C55.8915 10.416 57.5208 10.9707 58.5608 12.08C59.6008 13.1893 60.1208 14.7753 60.1208 16.838C60.1208 18.9007 59.6008 20.4867 58.5608 21.596C57.5381 22.7053 55.9088 23.26 53.6728 23.26ZM53.6728 20.868C54.9728 20.868 55.8915 20.556 56.4288 19.932C56.9835 19.2907 57.2608 18.2593 57.2608 16.838C57.2608 15.4167 56.9835 14.394 56.4288 13.77C55.8915 13.146 54.9728 12.834 53.6728 12.834C52.3901 12.834 51.4715 13.146 50.9168 13.77C50.3795 14.394 50.1108 15.4167 50.1108 16.838C50.1108 18.2593 50.3795 19.2907 50.9168 19.932C51.4715 20.556 52.3901 20.868 53.6728 20.868ZM68.7802 23.26C66.5616 23.26 64.9322 22.7053 63.8922 21.596C62.8696 20.4867 62.3582 18.9007 62.3582 16.838C62.3582 14.7753 62.8782 13.1893 63.9182 12.08C64.9582 10.9707 66.5789 10.416 68.7802 10.416C70.9989 10.416 72.6282 10.9707 73.6682 12.08C74.7082 13.1893 75.2282 14.7753 75.2282 16.838C75.2282 18.9007 74.7082 20.4867 73.6682 21.596C72.6456 22.7053 71.0162 23.26 68.7802 23.26ZM68.7802 20.868C70.0802 20.868 70.9989 20.556 71.5362 19.932C72.0909 19.2907 72.3682 18.2593 72.3682 16.838C72.3682 15.4167 72.0909 14.394 71.5362 13.77C70.9989 13.146 70.0802 12.834 68.7802 12.834C67.4976 12.834 66.5789 13.146 66.0242 13.77C65.4869 14.394 65.2182 15.4167 65.2182 16.838C65.2182 18.2593 65.4869 19.2907 66.0242 19.932C66.5789 20.556 67.4976 20.868 68.7802 20.868ZM82.6917 23.26C81.3743 23.26 80.3863 22.9133 79.7277 22.22C79.0863 21.5093 78.7657 20.5473 78.7657 19.334V12.886H76.9457V10.676H78.7657V7.842L81.5737 6.984V10.676H84.8497L84.6677 12.886H81.5737V19.178C81.5737 19.8887 81.7383 20.3913 82.0677 20.686C82.397 20.9633 82.9343 21.102 83.6797 21.102C84.1477 21.102 84.6417 21.0153 85.1617 20.842V22.844C84.4857 23.1213 83.6623 23.26 82.6917 23.26ZM91.4374 23.26C90.5881 23.26 89.7734 23.1993 88.9934 23.078C88.2307 22.9567 87.5981 22.8093 87.0954 22.636V20.244C87.6847 20.4693 88.3347 20.6427 89.0454 20.764C89.7561 20.8853 90.4321 20.946 91.0734 20.946C92.0441 20.946 92.7374 20.8593 93.1534 20.686C93.5694 20.5127 93.7774 20.1747 93.7774 19.672C93.7774 19.308 93.6474 19.022 93.3874 18.814C93.1447 18.606 92.7721 18.4153 92.2694 18.242C91.7841 18.0687 91.1601 17.8607 90.3974 17.618C89.6694 17.3753 89.0367 17.1153 88.4994 16.838C87.9621 16.5433 87.5461 16.1707 87.2514 15.72C86.9567 15.2693 86.8094 14.68 86.8094 13.952C86.8094 12.8253 87.2167 11.9587 88.0314 11.352C88.8461 10.728 90.1547 10.416 91.9574 10.416C92.6681 10.416 93.3441 10.468 93.9854 10.572C94.6267 10.676 95.1727 10.806 95.6234 10.962V13.328C95.1381 13.1373 94.6007 12.99 94.0114 12.886C93.4394 12.782 92.9021 12.73 92.3994 12.73C91.4981 12.73 90.8134 12.808 90.3454 12.964C89.8947 13.12 89.6694 13.432 89.6694 13.9C89.6694 14.3853 89.9034 14.732 90.3714 14.94C90.8567 15.1307 91.6281 15.3993 92.6854 15.746C93.6561 16.0407 94.4274 16.3527 94.9994 16.682C95.5714 17.0113 95.9787 17.41 96.2214 17.878C96.4814 18.3287 96.6114 18.918 96.6114 19.646C96.6114 20.8593 96.1694 21.7693 95.2854 22.376C94.4014 22.9653 93.1187 23.26 91.4374 23.26ZM103.715 23.26C102.398 23.26 101.41 22.9133 100.751 22.22C100.11 21.5093 99.7891 20.5473 99.7891 19.334V12.886H97.9691V10.676H99.7891V7.842L102.597 6.984V10.676H105.873L105.691 12.886H102.597V19.178C102.597 19.8887 102.762 20.3913 103.091 20.686C103.42 20.9633 103.958 21.102 104.703 21.102C105.171 21.102 105.665 21.0153 106.185 20.842V22.844C105.509 23.1213 104.686 23.26 103.715 23.26ZM112.201 23.26C111.421 23.26 110.693 23.1213 110.017 22.844C109.358 22.5667 108.83 22.1507 108.431 21.596C108.032 21.024 107.833 20.322 107.833 19.49C107.833 18.3113 108.232 17.3667 109.029 16.656C109.844 15.928 111.092 15.564 112.773 15.564H116.725V15.018C116.725 14.4287 116.63 13.9607 116.439 13.614C116.266 13.2673 115.936 13.016 115.451 12.86C114.983 12.704 114.29 12.626 113.371 12.626C111.915 12.626 110.554 12.8427 109.289 13.276V11.17C109.844 10.9447 110.52 10.7627 111.317 10.624C112.114 10.4853 112.972 10.416 113.891 10.416C115.694 10.416 117.063 10.78 117.999 11.508C118.952 12.236 119.429 13.4233 119.429 15.07V23H117.011L116.829 21.752C116.326 22.2373 115.702 22.61 114.957 22.87C114.229 23.13 113.31 23.26 112.201 23.26ZM112.955 21.232C113.804 21.232 114.541 21.0933 115.165 20.816C115.806 20.5213 116.326 20.1313 116.725 19.646V17.488H112.825C111.993 17.488 111.386 17.6527 111.005 17.982C110.641 18.294 110.459 18.7793 110.459 19.438C110.459 20.0793 110.676 20.5387 111.109 20.816C111.542 21.0933 112.158 21.232 112.955 21.232ZM128.63 23.26C126.463 23.26 124.825 22.714 123.716 21.622C122.606 20.5127 122.052 18.918 122.052 16.838C122.052 14.6713 122.658 13.0593 123.872 12.002C125.102 10.9447 126.74 10.416 128.786 10.416C129.635 10.416 130.346 10.4767 130.918 10.598C131.507 10.7193 132.07 10.91 132.608 11.17V13.276C131.706 12.8253 130.614 12.6 129.332 12.6C127.91 12.6 126.818 12.9207 126.056 13.562C125.293 14.186 124.912 15.278 124.912 16.838C124.912 18.3113 125.25 19.3947 125.926 20.088C126.602 20.764 127.72 21.102 129.28 21.102C130.51 21.102 131.628 20.868 132.634 20.4V22.558C132.062 22.7833 131.446 22.9567 130.788 23.078C130.146 23.1993 129.427 23.26 128.63 23.26ZM134.886 23V5.476H137.72V15.616L142.894 10.676H146.144L141.126 15.642L146.43 23H143.44L139.358 17.15L137.72 18.71V23H134.886Z" fill="#0F1419"/>
<path d="M13 2H2V13H13V2Z" fill="#4D76F6"/>
<path d="M15 13V2C17.9174 2 20.7153 3.15892 22.7782 5.22182C24.8411 7.28473 26 10.0826 26 13H15Z" fill="#20C997"/>
<path d="M13 15V26C10.0826 26 7.28473 24.8411 5.22183 22.7782C3.15893 20.7153 2 17.9174 2 15H13Z" fill="#4D76F6"/>
<path d="M15 15H26C26 17.9174 24.8411 20.7153 22.7782 22.7782C20.7153 24.8411 17.9174 26 15 26V15Z" fill="#4D76F6"/>
</svg>
