<svg width="512" height="512" viewBox="0 0 512 512" fill="none" xmlns="http://www.w3.org/2000/svg">
<path d="M249.8 32H109V172.8H249.8V32Z" fill="#4D76F6"/>
<path d="M249.8 185.6H109V326.4H249.8V185.6Z" fill="#4D76F6"/>
<path d="M262.6 326.4V185.6C299.942 185.6 335.755 200.434 362.161 226.839C388.566 253.245 403.4 289.058 403.4 326.4H262.6Z" fill="#4D76F6"/>
<path d="M249.8 339.2V480C212.458 480 176.644 465.166 150.239 438.761C123.834 412.355 109 376.542 109 339.2H249.8Z" fill="#4D76F6"/>
<path d="M262.6 339.2H403.4C403.4 376.542 388.566 412.355 362.161 438.761C335.755 465.166 299.942 480 262.6 480V339.2Z" fill="#4D76F6"/>
</svg>
